<?xml version="1.0" encoding="iso-8859-1"?>
<!-- Uploaded to: SVG Repo, www.svgrepo.com, Generator: SVG Repo Mixer Tools -->
<svg fill="#000000" version="1.1" id="Layer_1" xmlns="http://www.w3.org/2000/svg" xmlns:xlink="http://www.w3.org/1999/xlink" 
	 viewBox="0 0 512.003 512.003" xml:space="preserve">
<g>
	<g>
		<rect x="92.423" y="455.103" width="327.158" height="56.901"/>
	</g>
</g>
<g>
	<g>
		<rect x="92.423" width="327.158" height="56.901"/>
	</g>
</g>
<g>
	<g>
		<path d="M394.709,149.213V87.314H117.301v61.899c0,41.483,18.799,80.663,50.214,106.787
			c-31.415,26.124-50.214,65.304-50.214,106.787v61.899h277.408v-61.899c0-41.481-18.802-80.663-50.214-106.787
			C375.907,229.876,394.709,190.694,394.709,149.213z M352.547,313.764c7.641,15.01,11.745,31.748,11.745,49.023v31.482H147.718
			v-31.482c0-19.27,5.106-37.873,14.531-54.153c12.492,5.545,23.534,11.748,48.241,11.748c44.669,0,44.669-20.278,89.338-20.278
			C327.429,300.104,337.978,307.847,352.547,313.764z"/>
	</g>
</g>
</svg>