<?xml version="1.0" standalone="no"?>
<!DOCTYPE svg PUBLIC "-//W3C//DTD SVG 20010904//EN"
 "http://www.w3.org/TR/2001/REC-SVG-20010904/DTD/svg10.dtd">
<svg version="1.0" xmlns="http://www.w3.org/2000/svg"
 width="294.000000pt" height="298.000000pt" viewBox="0 0 294.000000 298.000000"
 preserveAspectRatio="xMidYMid meet">

<g transform="translate(0.000000,298.000000) scale(0.100000,-0.100000)"
fill="#e7343e" stroke="none">
<path d="M1265 2864 c-143 -22 -260 -60 -400 -129 -153 -75 -267 -159 -387
-283 -183 -190 -306 -427 -365 -702 -26 -121 -25 -410 1 -535 117 -562 534
-980 1096 -1101 120 -26 401 -26 519 -1 289 62 517 184 716 382 198 198 343
479 389 754 21 124 21 349 0 472 -69 410 -317 766 -679 977 -258 151 -590 213
-890 166z m507 -368 c-3 -19 -296 -830 -324 -898 -13 -32 -29 -58 -35 -58 -7
0 -13 3 -13 6 0 14 62 180 71 188 5 6 9 18 9 27 0 9 23 79 50 155 28 76 50
139 50 141 0 1 -37 14 -82 28 -103 33 -197 41 -268 25 -125 -28 -127 -28 -221
-4 -59 16 -119 24 -170 24 -43 0 -79 3 -79 6 0 12 124 221 167 282 70 99 84
102 513 96 272 -4 335 -7 332 -18z m-322 -674 c25 -32 25 -53 -1 -86 -15 -19
-30 -26 -54 -26 -24 0 -39 7 -54 26 -35 44 -22 93 30 112 32 12 56 4 79 -26z
m215 -2 c28 -31 24 -79 -10 -107 -30 -27 -65 -25 -97 4 -23 20 -23 80 -1 105
23 25 84 24 108 -2z m375 -18 c0 -28 8 -31 46 -20 28 7 43 5 71 -9 20 -10 39
-24 41 -31 3 -11 0 -12 -16 -3 -46 24 -40 7 20 -61 79 -91 127 -136 150 -144
19 -6 24 -29 9 -38 -4 -3 -11 -19 -14 -36 -8 -39 -26 -39 -152 5 -133 47 -148
46 -169 -6 -18 -44 -40 -179 -52 -312 -3 -43 -15 -94 -25 -114 -24 -46 -24
-68 0 -165 15 -65 17 -105 13 -243 l-5 -165 -33 0 -34 0 0 83 c0 45 -5 115
-10 156 -9 66 -14 78 -50 117 -22 24 -47 59 -56 78 -16 33 -18 33 -98 40 -44
4 -148 18 -231 31 -166 28 -205 30 -205 14 0 -17 -85 -140 -119 -173 l-31 -30
0 -147 c0 -81 -3 -154 -6 -163 -4 -11 -19 -16 -43 -16 l-38 0 5 82 c3 54 -1
114 -13 177 -17 95 -17 97 3 136 11 22 32 79 46 126 24 80 25 88 11 115 -21
40 -19 112 4 157 10 20 15 37 10 37 -19 0 -49 -41 -49 -67 0 -47 -19 -98 -45
-123 -16 -15 -25 -19 -25 -10 0 7 -12 -3 -27 -23 -49 -65 -98 -91 -178 -94
-68 -3 -66 5 5 21 14 3 34 12 45 21 19 14 19 15 -8 5 -39 -14 -107 -12 -137 3
-32 16 -66 67 -74 113 -9 45 -3 51 23 25 12 -12 28 -21 37 -21 14 0 14 2 0 22
-17 24 -21 64 -8 72 5 3 15 -5 22 -19 25 -47 108 -57 156 -19 18 15 18 15 -3
5 -12 -6 -41 -11 -65 -11 l-43 1 37 20 c23 11 51 40 72 73 61 95 168 122 275
69 39 -20 45 -20 78 -7 35 15 36 15 62 -16 23 -28 35 -33 102 -42 l77 -11 6
-36 c3 -20 6 -66 6 -103 0 -55 4 -72 20 -88 24 -24 47 -25 72 -3 15 14 18 32
18 120 l0 103 33 0 c17 0 43 -3 56 -7 23 -6 23 -7 17 -99 -7 -91 -6 -94 18
-119 30 -30 37 -31 67 -6 20 16 24 33 35 146 7 70 10 133 7 141 -3 8 1 14 10
14 9 0 28 5 42 12 23 10 25 16 25 74 0 61 -1 64 -31 80 -23 11 -28 19 -20 27
8 8 2 15 -22 25 l-32 15 38 7 c39 7 61 20 35 20 -9 0 -21 7 -28 15 -11 13 -8
15 16 15 28 0 73 20 47 20 -7 0 -13 5 -13 10 0 6 5 10 11 10 7 0 32 16 55 36
24 19 60 38 79 41 19 3 35 11 35 19 0 19 22 64 32 64 4 0 8 -8 8 -18z m-653
-138 c14 -22 15 -30 4 -58 -27 -65 -26 -71 16 -82 27 -6 39 -15 41 -30 5 -36
-21 -47 -94 -39 -54 6 -67 10 -74 28 l-9 22 0 -22 c-1 -24 25 -43 58 -43 14 0
21 -6 21 -18 0 -14 13 -22 53 -31 101 -25 98 -20 95 -194 l-3 -152 -27 -3
c-34 -4 -38 9 -47 146 l-6 97 -67 7 c-93 9 -108 15 -124 54 -31 75 -4 250 48
310 39 44 89 48 115 8z m201 1 c12 -9 28 -39 37 -70 15 -49 19 -54 48 -57 27
-2 32 -7 32 -28 0 -24 -3 -25 -59 -25 -61 0 -60 0 -85 55 -10 23 -11 22 -5
-10 4 -19 8 -66 8 -105 1 -66 2 -70 29 -83 15 -7 53 -16 83 -19 32 -4 58 -12
61 -19 3 -7 -1 -68 -9 -135 -10 -96 -17 -124 -30 -133 -13 -8 -23 -8 -35 0
-16 10 -18 27 -17 121 l2 110 -54 6 c-66 7 -74 12 -74 43 0 39 -17 61 -55 74
-40 13 -44 31 -15 60 23 23 26 53 6 69 -32 27 46 161 93 161 9 0 26 -7 39 -15z
m197 -179 c19 -8 35 -22 35 -30 0 -45 -137 -72 -199 -39 -55 29 -51 43 12 43
40 0 61 5 78 20 29 24 31 24 74 6z m-395 -62 c0 -8 -4 -12 -10 -9 -5 3 -10 10
-10 16 0 5 5 9 10 9 6 0 10 -7 10 -16z m220 -45 c0 -20 -15 -26 -25 -9 -9 15
3 43 15 35 5 -3 10 -15 10 -26z m200 1 c0 -25 -18 -36 -26 -16 -8 21 3 49 16
41 5 -3 10 -15 10 -25z m-152 -12 c-2 -13 -7 -23 -13 -23 -5 0 -11 10 -13 23
-2 15 2 22 13 22 11 0 15 -7 13 -22z m52 -9 c0 -10 -7 -19 -15 -19 -15 0 -21
31 -9 43 11 10 24 -3 24 -24z m50 6 c0 -14 -4 -25 -10 -25 -5 0 -10 11 -10 25
0 14 5 25 10 25 6 0 10 -11 10 -25z m-464 -432 c-4 -16 -20 -56 -36 -90 -15
-34 -25 -64 -22 -68 4 -4 10 -70 13 -148 3 -78 9 -150 13 -159 7 -15 3 -18
-27 -18 -22 0 -37 6 -41 16 -3 8 -11 68 -17 132 -8 87 -15 123 -30 144 l-20
28 46 57 c26 31 56 74 68 95 27 47 63 54 53 11z m486 -93 l47 -69 -23 -93
c-13 -51 -27 -121 -31 -155 l-7 -63 -34 0 -34 0 0 58 c0 31 7 99 15 151 13 80
14 96 2 110 -21 24 -39 61 -48 98 -7 33 -6 33 30 33 33 0 39 -5 83 -70z"/>
</g>
</svg>
